{
  "accessors": [
    {
      "bufferView": 1,
      "componentType": 5126,
      "count": 220,
      "max": [
        4.1488800048828125,
        3.3458800315856934,
        4.006450176239014
      ],
      "min": [
        -4.125909805297852,
        -0.22732000052928925,
        -1.0
      ],
      "type": "VEC3"
    },
    {
      "bufferView": 1,
      "byteOffset": 2640,
      "componentType": 5126,
      "count": 220,
      "max": [
        1.0,
        1.0,
        1.0
      ],
      "min": [
        -1.0,
        -1.0,
        -1.0
      ],
      "type": "VEC3"
    },
    {
      "bufferView": 0,
      "componentType": 5125,
      "count": 588,
      "type": "SCALAR"
    },
    {
      "bufferView": 1,
      "byteOffset": 5280,
      "componentType": 5126,
      "count": 72,
      "max": [
        1.7885799407958984,
        2.3364100456237793,
        -0.6314600110054016
      ],
      "min": [
        -4.125909805297852,
        0.9287899732589722,
        -1.0
      ],
      "type": "VEC3"
    },
    {
      "bufferView": 1,
      "byteOffset": 6144,
      "componentType": 5126,
      "count": 72,
      "max": [
        1.0,
        -0.0,
        1.0
      ],
      "min": [
        -1.0,
        -0.0,
        -1.0
      ],
      "type": "VEC3"
    },
    {
      "bufferView": 0,
      "byteOffset": 2352,
      "componentType": 5125,
      "count": 144,
      "type": "SCALAR"
    },
    {
      "bufferView": 1,
      "byteOffset": 7008,
      "componentType": 5126,
      "count": 166,
      "max": [
        1.7885799407958984,
        4.004149913787842,
        -0.6314600110054016
      ],
      "min": [
        -4.125909805297852,
        2.3071699142456055,
        -1.0
      ],
      "type": "VEC3"
    },
    {
      "bufferView": 1,
      "byteOffset": 9000,
      "componentType": 5126,
      "count": 166,
      "max": [
        1.0,
        1.0,
        1.0
      ],
      "min": [
        -1.0,
        -0.9988594651222229,
        -1.0
      ],
      "type": "VEC3"
    },
    {
      "bufferView": 0,
      "byteOffset": 2928,
      "componentType": 5125,
      "count": 408,
      "type": "SCALAR"
    },
    {
      "bufferView": 1,
      "byteOffset": 10992,
      "componentType": 5126,
      "count": 146,
      "max": [
        1.7885799407958984,
        0.9426900148391724,
        -0.6314600110054016
      ],
      "min": [
        -4.125909805297852,
        -0.8430200219154358,
        -1.0
      ],
      "type": "VEC3"
    },
    {
      "bufferView": 1,
      "byteOffset": 12744,
      "componentType": 5126,
      "count": 146,
      "max": [
        1.0,
        0.998321533203125,
        1.0
      ],
      "min": [
        -1.0,
        -1.0,
        -1.0
      ],
      "type": "VEC3"
    },
    {
      "bufferView": 0,
      "byteOffset": 4560,
      "componentType": 5125,
      "count": 396,
      "type": "SCALAR"
    }
  ],
  "asset": {
    "extras": {
      "author": "Sir2Yas (https://sketchfab.com/yas2yas)",
      "license": "CC-BY-4.0 (http://creativecommons.org/licenses/by/4.0/)",
      "source": "https://sketchfab.com/3d-models/playstation-logo-3d-printable-b334756ab43e47479042c30d07ab0b12",
      "title": "Playstation Logo (3D Printable)"
    },
    "generator": "Sketchfab-12.66.0",
    "version": "2.0"
  },
  "bufferViews": [
    {
      "buffer": 0,
      "byteLength": 6144,
      "name": "floatBufferViews",
      "target": 34963
    },
    {
      "buffer": 0,
      "byteLength": 14496,
      "byteOffset": 6144,
      "byteStride": 12,
      "name": "floatBufferViews",
      "target": 34962
    }
  ],
  "buffers": [
    {
      "byteLength": 20640,
      "uri": "scene.bin"
    }
  ],
  "materials": [
    {
      "doubleSided": true,
      "name": "Material",
      "pbrMetallicRoughness": {
        "baseColorFactor": [
          0.8000000715,
          0.010843806,
          0.0161377564,
          1.0
        ],
        "metallicFactor": 0.0,
        "roughnessFactor": 0.6
      }
    },
    {
      "doubleSided": true,
      "name": "Material.001",
      "pbrMetallicRoughness": {
        "baseColorFactor": [
          0.0459166951,
          0.8000000715,
          0.3078399599,
          1.0
        ],
        "metallicFactor": 0.0,
        "roughnessFactor": 0.6
      }
    },
    {
      "doubleSided": true,
      "name": "Material.002",
      "pbrMetallicRoughness": {
        "baseColorFactor": [
          0.0,
          0.0872007832,
          0.8000000715,
          1.0
        ],
        "metallicFactor": 0.0,
        "roughnessFactor": 0.6
      }
    },
    {
      "doubleSided": true,
      "name": "Material.003",
      "pbrMetallicRoughness": {
        "baseColorFactor": [
          0.8000000715,
          0.7995203733,
          0.0136484047,
          1.0
        ],
        "metallicFactor": 0.0,
        "roughnessFactor": 0.6
      }
    }
  ],
  "meshes": [
    {
      "name": "Cube_0",
      "primitives": [
        {
          "attributes": {
            "NORMAL": 1,
            "POSITION": 0
          },
          "indices": 2,
          "material": 0,
          "mode": 4
        }
      ]
    },
    {
      "name": "Cube_1",
      "primitives": [
        {
          "attributes": {
            "NORMAL": 4,
            "POSITION": 3
          },
          "indices": 5,
          "material": 1,
          "mode": 4
        }
      ]
    },
    {
      "name": "Cube_2",
      "primitives": [
        {
          "attributes": {
            "NORMAL": 7,
            "POSITION": 6
          },
          "indices": 8,
          "material": 2,
          "mode": 4
        }
      ]
    },
    {
      "name": "Cube_3",
      "primitives": [
        {
          "attributes": {
            "NORMAL": 10,
            "POSITION": 9
          },
          "indices": 11,
          "material": 3,
          "mode": 4
        }
      ]
    }
  ],
  "nodes": [
    {
      "children": [
        1
      ],
      "matrix": [
        1.0,
        0.0,
        0.0,
        0.0,
        0.0,
        2.220446049250313e-16,
        -1.0,
        0.0,
        0.0,
        1.0,
        2.220446049250313e-16,
        0.0,
        0.0,
        0.0,
        0.0,
        1.0
      ],
      "name": "Sketchfab_model"
    },
    {
      "children": [
        2
      ],
      "name": "Root"
    },
    {
      "children": [
        3,
        4,
        5,
        6
      ],
      "matrix": [
        0.7242500000000001,
        0.0,
        0.0,
        0.0,
        0.0,
        1.0,
        0.0,
        0.0,
        0.0,
        0.0,
        1.0,
        0.0,
        0.0,
        0.0,
        1.0,
        1.0
      ],
      "name": "Cube"
    },
    {
      "mesh": 0,
      "name": "Cube_0"
    },
    {
      "mesh": 1,
      "name": "Cube_1"
    },
    {
      "mesh": 2,
      "name": "Cube_2"
    },
    {
      "mesh": 3,
      "name": "Cube_3"
    }
  ],
  "scene": 0,
  "scenes": [
    {
      "name": "Sketchfab_Scene",
      "nodes": [
        0
      ]
    }
  ]
}
