<?xml version="1.0" encoding="UTF-8" standalone="no"?>
<!-- Generator: Adobe Illustrator 16.0.0, SVG Export Plug-In . SVG Version: 6.00 Build 0)  -->

<svg
   xmlns:dc="http://purl.org/dc/elements/1.1/"
   xmlns:cc="http://creativecommons.org/ns#"
   xmlns:rdf="http://www.w3.org/1999/02/22-rdf-syntax-ns#"
   xmlns:svg="http://www.w3.org/2000/svg"
   xmlns="http://www.w3.org/2000/svg"
   xmlns:xlink="http://www.w3.org/1999/xlink"
   xmlns:sodipodi="http://sodipodi.sourceforge.net/DTD/sodipodi-0.dtd"
   xmlns:inkscape="http://www.inkscape.org/namespaces/inkscape"
   version="1.1"
   id="Layer_1"
   x="0px"
   y="0px"
   width="714.19"
   height="1000"
   viewBox="0 0 714.18998 1000"
   enable-background="new 0 0 224.557 310.973"
   xml:space="preserve"
   sodipodi:docname="Sony Computer Entertainment.svg"
   inkscape:version="0.92.2 (5c3e80d, 2017-08-06)"><metadata
     id="metadata30993"><rdf:RDF><cc:Work
         rdf:about=""><dc:format>image/svg+xml</dc:format><dc:type
           rdf:resource="http://purl.org/dc/dcmitype/StillImage" /><dc:title></dc:title></cc:Work></rdf:RDF></metadata><defs
     id="defs30991"><clipPath
       id="clip259"><path
         inkscape:connector-curvature="0"
         d="m 2173,331 h 2.6641 v 5 H 2173 Z m 0,0"
         id="path26534" /></clipPath></defs><sodipodi:namedview
     pagecolor="#ffffff"
     bordercolor="#666666"
     borderopacity="1"
     objecttolerance="10"
     gridtolerance="10"
     guidetolerance="10"
     inkscape:pageopacity="0"
     inkscape:pageshadow="2"
     inkscape:window-width="1360"
     inkscape:window-height="706"
     id="namedview30989"
     showgrid="false"
     inkscape:zoom="0.18972709"
     inkscape:cx="2294.638"
     inkscape:cy="883.47796"
     inkscape:window-x="-8"
     inkscape:window-y="-8"
     inkscape:window-maximized="1"
     inkscape:current-layer="Layer_1" /><g
     id="g20364"
     transform="matrix(3.2453729,0,0,3.2453729,-8.1101899,-4.5078234)"><defs
       id="defs20357"><rect
         height="330"
         width="241.92999"
         y="-9.3850002"
         x="-8.658"
         id="SVGID_1_" /></defs><clipPath
       id="SVGID_2_"><use
         height="100%"
         width="100%"
         y="0"
         x="0"
         style="overflow:visible"
         id="use20359"
         overflow="visible"
         xlink:href="#SVGID_1_" /></clipPath><polygon
       style="fill:#282a74"
       id="polygon20362"
       points="72.333,27.126 71.573,26.47 71.067,25.962 70.562,25.452 70.128,24.906 69.696,24.325 69.298,23.774 68.936,23.154 68.612,22.536 68.323,21.917 68.07,21.298 67.889,20.644 67.708,19.99 67.521,19.335 67.413,18.645 67.303,17.99 67.303,17.299 67.268,16.607 67.303,15.916 67.34,15.224 67.413,14.562 67.521,13.872 67.708,13.218 67.889,12.563 68.106,11.906 68.359,11.29 68.647,10.671 68.971,10.052 69.333,9.471 69.731,8.89 70.128,8.307 70.598,7.761 71.067,7.253 71.573,6.743 72.298,6.124 73.055,5.578 73.886,4.99 74.76,4.516 75.627,4.008 76.603,3.607 77.578,3.172 78.626,2.808 79.674,2.48 80.758,2.189 81.849,1.97 82.967,1.752 84.088,1.57 85.208,1.498 86.329,1.389 87.448,1.389 88.684,1.389 89.876,1.462 91.033,1.57 92.151,1.679 93.272,1.861 94.321,2.081 95.375,2.371 96.387,2.662 97.326,3.025 98.301,3.425 99.204,3.862 100.072,4.334 100.938,4.88 101.768,5.434 102.57,6.088 103.366,6.743 103.872,7.253 104.343,7.761 104.812,8.307 105.209,8.89 105.605,9.471 105.968,10.052 106.257,10.671 106.545,11.29 106.798,11.906 107.016,12.563 107.195,13.218 107.341,13.872 107.448,14.562 107.558,15.224 107.594,15.916 107.594,16.607 107.594,17.26 107.522,17.917 107.448,18.573 107.341,19.262 107.195,19.916 107.016,20.608 106.763,21.227 106.545,21.881 106.257,22.536 105.933,23.154 105.57,23.735 105.172,24.325 104.775,24.906 104.306,25.452 103.837,25.962 103.366,26.47 102.606,27.126 101.842,27.708 101.012,28.29 100.144,28.8 99.276,29.271 98.301,29.745 97.326,30.144 96.351,30.472 95.295,30.8 94.247,31.091 93.164,31.346 92.043,31.528 90.923,31.672 89.767,31.781 88.613,31.818 87.448,31.854 87.448,27.816 88.063,27.816 88.684,27.781 89.299,27.708 89.876,27.635 90.453,27.526 91.033,27.344 91.609,27.198 92.151,26.98 92.694,26.763 93.2,26.543 93.706,26.253 94.211,25.962 94.68,25.671 95.115,25.308 95.557,24.944 95.989,24.545 96.71,23.735 97.361,22.826 97.903,21.955 98.301,20.972 98.661,19.954 98.881,18.898 99.023,17.771 99.095,16.607 99.023,15.444 98.881,14.345 98.626,13.253 98.301,12.199 97.867,11.253 97.326,10.307 96.675,9.436 95.989,8.635 95.592,8.271 95.115,7.907 94.68,7.543 94.211,7.253 93.706,6.96 93.2,6.669 92.694,6.452 92.151,6.198 91.609,6.015 91.033,5.833 90.453,5.688 89.876,5.578 89.299,5.506 88.684,5.398 88.063,5.398 87.448,5.36 86.871,5.398 86.22,5.398 85.643,5.506 85.028,5.578 84.451,5.688 83.871,5.833 83.294,6.015 82.753,6.198 82.21,6.415 81.704,6.669 81.154,6.96 80.684,7.253 80.215,7.543 79.783,7.907 79.313,8.233 78.915,8.635 78.229,9.436 77.578,10.307 77.037,11.253 76.603,12.199 76.278,13.291 76.025,14.345 75.88,15.444 75.844,16.607 75.88,17.735 76.025,18.862 76.278,19.916 76.603,20.934 77.072,21.955 77.578,22.865 78.229,23.735 78.915,24.545 79.313,24.944 79.783,25.27 80.215,25.634 80.684,25.962 81.154,26.253 81.704,26.508 82.21,26.763 82.753,26.98 83.294,27.162 83.871,27.344 84.451,27.49 85.028,27.635 85.643,27.708 86.22,27.781 86.871,27.816 87.448,27.816 87.448,31.854 86.291,31.818 85.137,31.781 84.016,31.672 82.896,31.528 81.813,31.346 80.722,31.091 79.674,30.8 78.626,30.472 77.652,30.108 76.674,29.709 75.735,29.271 74.833,28.8 73.958,28.29 73.127,27.708 "
       clip-path="url(#SVGID_2_)" /></g><g
     id="g20374"
     transform="matrix(3.2453729,0,0,3.2453729,-8.1101899,-4.5078234)"><defs
       id="defs20367"><rect
         height="330"
         width="241.92999"
         y="-9.3850002"
         x="-8.658"
         id="SVGID_3_" /></defs><clipPath
       id="SVGID_4_"><use
         height="100%"
         width="100%"
         y="0"
         x="0"
         style="overflow:visible"
         id="use20369"
         overflow="visible"
         xlink:href="#SVGID_3_" /></clipPath><polygon
       style="fill:#282a74"
       id="polygon20372"
       points="32.227,3.208 31.612,3.462 31.068,3.718 30.527,4.008 29.985,4.299 29.514,4.625 29.044,4.99 28.573,5.36 28.176,5.76 27.779,6.162 27.452,6.596 27.128,7.071 26.875,7.579 26.622,8.125 26.44,8.708 26.295,9.289 26.223,9.87 26.223,10.562 26.295,11.689 26.513,12.708 26.837,13.582 27.199,14.271 27.562,14.86 27.887,15.262 28.105,15.515 28.176,15.588 28.358,15.734 28.538,15.916 28.719,16.098 28.972,16.281 29.224,16.462 29.479,16.679 29.767,16.861 30.093,17.079 30.454,17.299 30.853,17.48 31.286,17.663 31.756,17.88 32.262,18.062 32.806,18.244 33.419,18.39 34.072,18.573 34.396,18.645 34.758,18.716 35.155,18.754 35.626,18.862 36.096,18.936 36.567,19.044 37.108,19.118 37.653,19.191 38.229,19.262 38.81,19.335 39.423,19.444 40.074,19.517 40.689,19.625 41.34,19.663 41.992,19.734 42.643,19.808 43.257,19.916 43.943,19.954 44.559,20.027 45.174,20.098 45.788,20.171 46.367,20.209 46.947,20.317 47.524,20.353 48.03,20.426 48.536,20.5 49.007,20.57 49.478,20.608 49.874,20.717 50.236,20.752 50.525,20.826 50.816,20.899 51.285,21.007 51.755,21.154 52.263,21.335 52.731,21.591 53.167,21.917 53.455,22.354 53.708,22.936 53.782,23.627 53.708,24.325 53.455,24.906 53.167,25.381 52.767,25.781 52.369,26.071 51.973,26.253 51.685,26.361 51.502,26.47 51.393,26.47 51.285,26.543 51.104,26.617 50.852,26.689 50.599,26.798 50.272,26.907 49.91,27.016 49.513,27.126 49.08,27.235 48.574,27.344 48.03,27.417 47.453,27.526 46.801,27.562 46.15,27.635 45.427,27.672 44.667,27.672 44.089,27.672 43.474,27.635 42.896,27.599 42.281,27.526 41.666,27.417 41.087,27.344 40.509,27.235 39.931,27.126 39.388,27.053 38.88,26.907 38.376,26.798 37.941,26.652 37.506,26.543 37.108,26.47 36.782,26.361 36.493,26.253 36.205,26.144 35.917,26.035 35.626,25.889 35.336,25.781 35.048,25.634 34.758,25.49 34.434,25.308 34.143,25.162 33.854,24.979 33.565,24.762 33.239,24.507 32.951,24.29 32.66,24.027 32.371,23.735 32.083,23.446 31.792,23.082 31.648,22.865 31.467,22.573 31.321,22.245 31.141,21.881 31.033,21.444 30.924,21.007 30.853,20.535 30.817,20.063 27.055,20.063 27.055,30.727 31.25,30.727 31.25,30.545 31.25,30.108 31.25,29.635 31.25,29.271 31.25,29.199 31.286,29.09 31.359,28.981 31.432,28.835 31.539,28.764 31.721,28.69 31.937,28.69 32.154,28.8 32.335,28.872 32.551,28.981 32.806,29.09 33.095,29.199 33.419,29.308 33.781,29.453 34.18,29.563 34.54,29.709 34.975,29.854 35.408,30 35.843,30.144 36.313,30.291 36.782,30.437 37.291,30.545 37.796,30.654 38.302,30.763 38.7,30.836 39.098,30.945 39.494,31.018 39.856,31.091 40.184,31.164 40.544,31.235 40.942,31.309 41.305,31.346 41.666,31.417 42.028,31.417 42.426,31.49 42.822,31.528 43.257,31.528 43.69,31.528 44.161,31.563 44.667,31.563 45.499,31.563 46.258,31.528 46.982,31.49 47.669,31.417 48.321,31.382 48.898,31.309 49.478,31.235 50.019,31.126 50.525,31.053 50.959,30.945 51.393,30.836 51.828,30.727 52.19,30.654 52.586,30.545 52.914,30.437 53.237,30.363 53.529,30.255 53.817,30.144 54.144,30.073 54.468,29.962 54.793,29.818 55.12,29.671 55.444,29.563 55.771,29.381 56.095,29.236 56.42,29.09 56.747,28.908 57.071,28.69 57.398,28.508 57.723,28.29 58.013,28.071 58.302,27.816 58.663,27.526 59.097,27.126 59.531,26.581 60.001,25.962 60.399,25.199 60.726,24.325 60.94,23.336 61.014,22.208 60.94,21.116 60.761,20.136 60.473,19.262 60.146,18.534 59.748,17.88 59.423,17.371 59.097,17.007 58.844,16.715 58.519,16.425 58.192,16.134 57.904,15.916 57.542,15.661 57.217,15.444 56.818,15.224 56.457,15.042 56.095,14.86 55.771,14.673 55.373,14.526 54.975,14.345 54.505,14.201 54.07,14.054 53.637,13.908 53.167,13.764 52.767,13.69 52.298,13.582 51.828,13.473 51.285,13.362 50.707,13.253 50.091,13.145 49.442,13.036 48.792,12.963 48.104,12.854 47.453,12.745 46.765,12.672 46.15,12.563 45.499,12.49 44.919,12.417 44.341,12.309 43.836,12.271 43.366,12.199 42.896,12.162 42.352,12.126 41.811,12.053 41.233,12.017 40.654,11.945 40.074,11.906 39.458,11.835 38.88,11.763 38.265,11.689 37.724,11.617 37.181,11.542 36.638,11.435 36.132,11.361 35.699,11.253 35.301,11.179 34.939,11.071 34.758,10.997 34.469,10.889 34.216,10.744 33.962,10.525 33.745,10.271 33.565,9.979 33.419,9.617 33.383,9.18 33.383,8.89 33.457,8.562 33.565,8.271 33.745,7.98 33.926,7.725 34.18,7.435 34.469,7.215 34.793,6.96 35.119,6.778 35.408,6.634 35.808,6.452 36.205,6.343 36.638,6.198 37.073,6.088 37.543,5.942 38.049,5.833 38.557,5.76 39.098,5.688 39.639,5.578 40.184,5.542 40.762,5.506 41.34,5.47 41.918,5.434 42.534,5.434 43.257,5.434 43.943,5.47 44.595,5.506 45.246,5.578 45.897,5.651 46.477,5.76 47.09,5.87 47.669,5.979 48.211,6.088 48.753,6.232 49.26,6.379 49.766,6.525 50.236,6.669 50.671,6.852 51.104,7.033 51.502,7.18 51.755,7.324 52.008,7.435 52.298,7.617 52.586,7.725 52.878,7.943 53.131,8.125 53.382,8.307 53.637,8.488 53.925,8.708 54.215,9.034 54.505,9.398 54.793,9.799 55.082,10.271 55.373,10.815 55.59,11.399 55.735,12.017 59.134,12.017 59.134,2.735 55.336,2.735 55.336,3.826 55.301,3.935 55.264,4.082 55.191,4.19 55.082,4.299 54.903,4.372 54.758,4.372 54.541,4.334 54.323,4.226 53.925,4.043 53.529,3.862 53.059,3.645 52.479,3.425 51.863,3.172 51.212,2.953 50.454,2.698 49.66,2.48 48.862,2.263 47.994,2.081 47.054,1.861 46.079,1.717 45.103,1.57 44.089,1.498 43.004,1.424 41.918,1.389 41.305,1.389 40.654,1.424 40.003,1.498 39.388,1.535 38.7,1.57 38.049,1.679 37.397,1.788 36.746,1.899 36.061,2.043 35.408,2.189 34.758,2.371 34.107,2.553 33.492,2.771 32.841,2.953 "
       clip-path="url(#SVGID_4_)" /></g><g
     id="g20384"
     transform="matrix(3.2453729,0,0,3.2453729,-8.1101899,-4.5078234)"><defs
       id="defs20377"><rect
         height="330"
         width="241.92999"
         y="-9.3850002"
         x="-8.658"
         id="SVGID_5_" /></defs><clipPath
       id="SVGID_6_"><use
         height="100%"
         width="100%"
         y="0"
         x="0"
         style="overflow:visible"
         id="use20379"
         overflow="visible"
         xlink:href="#SVGID_5_" /></clipPath><polygon
       style="fill:#282a74"
       id="polygon20382"
       points="138.407,6.452 138.123,6.452 137.941,6.452 137.87,6.452 137.87,3.099 153.704,3.099 153.704,6.452 153.633,6.452 153.451,6.452 153.201,6.452 152.802,6.452 152.296,6.452 151.719,6.452 151.069,6.452 150.303,6.452 149.761,6.488 149.361,6.561 149.037,6.707 148.824,6.925 148.678,7.215 148.603,7.579 148.57,8.016 148.532,8.597 148.824,30.144 143.431,30.144 122.133,11.035 122.133,24.616 122.133,25.162 122.164,25.561 122.239,25.962 122.386,26.253 122.564,26.508 122.853,26.652 123.224,26.763 123.729,26.798 124.485,26.798 125.244,26.798 125.858,26.798 126.403,26.798 126.909,26.798 127.233,26.798 127.446,26.798 127.518,26.798 127.518,30.144 112.008,30.144 112.008,26.798 112.081,26.798 112.262,26.798 112.585,26.798 113.02,26.798 113.562,26.798 114.175,26.798 114.863,26.798 115.657,26.798 116.097,26.763 116.423,26.581 116.641,26.361 116.819,26.035 116.889,25.671 116.929,25.27 116.929,24.906 116.929,24.545 116.929,8.708 116.929,8.307 116.889,7.943 116.784,7.543 116.603,7.215 116.35,6.925 115.945,6.669 115.367,6.525 114.681,6.452 111.756,6.452 111.756,3.099 124.956,3.099 143.431,19.881 143.249,8.597 143.216,8.051 143.178,7.652 143.071,7.253 142.893,6.96 142.64,6.743 142.311,6.596 141.912,6.488 141.335,6.452 140.576,6.452 139.927,6.452 139.314,6.452 138.809,6.452 "
       clip-path="url(#SVGID_6_)" /></g><g
     id="g20394"
     transform="matrix(3.2453729,0,0,3.2453729,-8.1101899,-4.5078234)"><defs
       id="defs20387"><rect
         height="330"
         width="241.92999"
         y="-9.3850002"
         x="-8.658"
         id="SVGID_7_" /></defs><clipPath
       id="SVGID_8_"><use
         height="100%"
         width="100%"
         y="0"
         x="0"
         style="overflow:visible"
         id="use20389"
         overflow="visible"
         xlink:href="#SVGID_7_" /></clipPath><polygon
       style="fill:#282a74"
       id="polygon20392"
       points="173.49,25.49 173.49,25.343 173.49,24.507 173.49,22.754 173.49,20.899 173.49,20.027 173.49,19.916 173.45,19.808 173.419,19.734 173.273,19.517 173.127,19.335 172.803,18.971 172.297,18.39 171.647,17.663 170.88,16.789 170.086,15.879 169.181,14.86 168.278,13.799 167.378,12.781 166.476,11.763 165.646,10.815 164.887,9.943 164.226,9.18 163.723,8.597 163.323,8.198 163.142,7.98 162.924,7.725 162.672,7.506 162.348,7.253 162.023,6.998 161.66,6.778 161.228,6.634 160.758,6.525 160.216,6.452 159.746,6.452 159.24,6.452 158.701,6.452 158.155,6.452 157.689,6.452 157.282,6.452 157.029,6.452 156.922,6.452 156.922,3.099 175.476,3.099 175.476,6.452 175.404,6.452 175.187,6.452 174.898,6.452 174.535,6.452 174.14,6.452 173.779,6.452 173.49,6.452 173.237,6.452 173.056,6.488 172.913,6.561 172.768,6.669 172.696,6.778 172.621,6.96 172.621,7.106 172.696,7.324 172.843,7.506 172.913,7.579 173.096,7.834 173.419,8.198 173.779,8.67 174.286,9.253 174.788,9.87 175.369,10.562 175.945,11.253 176.524,11.98 177.105,12.672 177.643,13.291 178.112,13.872 178.521,14.345 178.845,14.744 179.026,15.007 179.133,15.116 179.168,15.151 179.204,15.151 179.279,15.151 179.311,15.151 179.421,15.042 179.604,14.79 179.929,14.418 180.363,13.908 180.869,13.362 181.375,12.708 181.953,12.017 182.53,11.325 183.143,10.633 183.72,9.943 184.263,9.289 184.732,8.708 185.132,8.233 185.465,7.87 185.678,7.652 185.749,7.543 185.859,7.361 185.895,7.215 185.895,7.033 185.824,6.852 185.749,6.707 185.606,6.561 185.425,6.488 185.203,6.452 184.985,6.452 184.657,6.452 184.263,6.452 183.901,6.452 183.502,6.452 183.178,6.452 182.996,6.452 182.89,6.452 182.89,3.099 198.113,3.099 198.113,6.452 198.007,6.452 197.714,6.452 197.319,6.452 196.852,6.452 196.271,6.452 195.693,6.452 195.188,6.452 194.718,6.452 194.281,6.452 193.887,6.525 193.563,6.596 193.273,6.707 192.985,6.889 192.692,7.106 192.369,7.397 192.036,7.761 191.854,7.98 191.498,8.415 190.952,8.999 190.304,9.762 189.545,10.671 188.714,11.617 187.813,12.635 186.871,13.69 185.971,14.744 185.057,15.805 184.227,16.753 183.467,17.625 182.818,18.353 182.313,18.936 181.984,19.335 181.843,19.517 181.731,19.625 181.731,19.772 181.699,19.916 181.699,20.027 181.699,20.863 181.699,22.536 181.699,24.325 181.699,25.343 181.699,25.49 181.731,25.707 181.731,25.924 181.771,26.071 181.878,26.253 182.024,26.47 182.237,26.617 182.49,26.725 182.565,26.763 182.672,26.763 182.818,26.763 182.965,26.763 183.107,26.798 183.249,26.798 183.36,26.798 183.432,26.798 183.755,26.798 184.263,26.798 184.839,26.798 185.425,26.798 186.002,26.798 186.477,26.798 186.761,26.798 186.906,26.798 186.906,30.144 168.46,30.144 168.46,26.798 171.754,26.798 171.829,26.798 171.936,26.798 172.082,26.798 172.226,26.763 172.368,26.763 172.514,26.763 172.621,26.763 172.696,26.725 172.944,26.617 173.127,26.47 173.309,26.253 173.419,26.071 173.419,25.924 173.45,25.707 "
       clip-path="url(#SVGID_8_)" /></g><g
     id="g30774"
     transform="matrix(3.2453729,0,0,3.2453729,-8.1101899,-4.5078234)"><defs
       id="defs30767"><rect
         height="330"
         width="241.92999"
         y="-9.3850002"
         x="-8.658"
         id="SVGID_2083_" /></defs><clipPath
       id="SVGID_2084_"><use
         height="100%"
         width="100%"
         y="0"
         x="0"
         style="overflow:visible"
         id="use30769"
         overflow="visible"
         xlink:href="#SVGID_2083_" /></clipPath><polygon
       style="fill:#282a74"
       id="polygon30772"
       points="30.382,298.199 30.382,302.24 37.543,302.24 37.543,303.695 30.382,303.695 30.382,308.064 38.229,308.064 38.229,309.52 28.538,309.52 28.538,296.783 38.049,296.783 38.049,298.199 "
       clip-path="url(#SVGID_2084_)" /></g><g
     id="g30784"
     transform="matrix(3.2453729,0,0,3.2453729,-8.1101899,-4.5078234)"><defs
       id="defs30777"><rect
         height="330"
         width="241.92999"
         y="-9.3850002"
         x="-8.658"
         id="SVGID_2085_" /></defs><clipPath
       id="SVGID_2086_"><use
         height="100%"
         width="100%"
         y="0"
         x="0"
         style="overflow:visible"
         id="use30779"
         overflow="visible"
         xlink:href="#SVGID_2085_" /></clipPath><polygon
       style="fill:#282a74"
       id="polygon30782"
       points="50.454,309.52 42.714,298.638 42.679,298.638 42.679,309.52 40.833,309.52 40.833,296.783 43.366,296.783 51.104,307.625 51.14,307.625 51.14,296.783 52.949,296.783 52.949,309.52 "
       clip-path="url(#SVGID_2086_)" /></g><g
     id="g30794"
     transform="matrix(3.2453729,0,0,3.2453729,-8.1101899,-4.5078234)"><defs
       id="defs30787"><rect
         height="330"
         width="241.92999"
         y="-9.3850002"
         x="-8.658"
         id="SVGID_2087_" /></defs><clipPath
       id="SVGID_2088_"><use
         height="100%"
         width="100%"
         y="0"
         x="0"
         style="overflow:visible"
         id="use30789"
         overflow="visible"
         xlink:href="#SVGID_2087_" /></clipPath><polygon
       style="fill:#282a74"
       id="polygon30792"
       points="59.748,309.52 59.748,298.31 54.397,298.31 54.397,296.783 66.979,296.783 66.979,298.31 61.592,298.31 61.592,309.52 "
       clip-path="url(#SVGID_2088_)" /></g><g
     id="g30804"
     transform="matrix(3.2453729,0,0,3.2453729,-8.1101899,-4.5078234)"><defs
       id="defs30797"><rect
         height="330"
         width="241.92999"
         y="-9.3850002"
         x="-8.658"
         id="SVGID_2089_" /></defs><clipPath
       id="SVGID_2090_"><use
         height="100%"
         width="100%"
         y="0"
         x="0"
         style="overflow:visible"
         id="use30799"
         overflow="visible"
         xlink:href="#SVGID_2089_" /></clipPath><polygon
       style="fill:#282a74"
       id="polygon30802"
       points="70.381,298.199 70.381,302.24 77.542,302.24 77.542,303.695 70.381,303.695 70.381,308.064 78.264,308.064 78.264,309.52 68.575,309.52 68.575,296.783 78.048,296.783 78.048,298.199 "
       clip-path="url(#SVGID_2090_)" /></g><g
     id="g30816"
     transform="matrix(3.2453729,0,0,3.2453729,-8.1101899,-4.5078234)"><defs
       id="defs30809"><rect
         height="330"
         width="241.92999"
         y="-9.3850002"
         x="-8.658"
         id="SVGID_2091_" /></defs><clipPath
       id="SVGID_2092_"><use
         height="100%"
         width="100%"
         y="0"
         x="0"
         style="overflow:visible"
         id="use30811"
         overflow="visible"
         xlink:href="#SVGID_2091_" /></clipPath><path
       style="fill:#282a74"
       inkscape:connector-curvature="0"
       id="path30814"
       d="m 91.719,308.867 -0.145,-0.804 -0.144,-0.874 -0.182,-0.979 -0.107,-0.729 -0.182,-0.655 -0.216,-0.512 -0.218,-0.398 -0.323,-0.292 -0.398,-0.218 -0.471,-0.182 -0.578,-0.076 v -0.035 l 0.651,-0.146 0.541,-0.218 0.505,-0.288 0.397,-0.333 0.362,-0.436 0.218,-0.474 0.178,-0.506 0.036,-0.586 v -0.363 l -0.036,-0.365 -0.069,-0.327 -0.073,-0.328 -0.146,-0.288 -0.143,-0.293 -0.218,-0.253 -0.216,-0.218 -0.291,-0.222 -0.36,-0.182 -0.398,-0.143 -0.434,-0.15 -0.505,-0.106 -0.548,-0.076 h -0.651 l -0.686,-0.03 H 80.61 v 12.736 h 1.851 v -5.714 H 86 l 0.795,0.035 0.651,0.075 0.542,0.183 0.396,0.182 0.332,0.218 0.182,0.288 0.182,0.293 0.106,0.328 0.11,0.546 0.108,0.581 0.106,0.585 0.109,0.546 0.071,0.546 0.11,0.475 0.107,0.47 0.145,0.364 h 1.915 z m -3.294,-6.698 -0.507,0.109 -0.614,0.072 -0.686,0.035 h -4.155 v -4.187 h 4.189 l 0.76,0.039 0.65,0.071 0.55,0.146 0.398,0.182 0.323,0.288 0.253,0.404 0.107,0.435 0.036,0.546 -0.036,0.544 -0.181,0.44 -0.253,0.398 -0.36,0.254 z"
       clip-path="url(#SVGID_2092_)" /></g><g
     id="g30826"
     transform="matrix(3.2453729,0,0,3.2453729,-8.1101899,-4.5078234)"><defs
       id="defs30819"><rect
         height="330"
         width="241.92999"
         y="-9.3850002"
         x="-8.658"
         id="SVGID_2093_" /></defs><clipPath
       id="SVGID_2094_"><use
         height="100%"
         width="100%"
         y="0"
         x="0"
         style="overflow:visible"
         id="use30821"
         overflow="visible"
         xlink:href="#SVGID_2093_" /></clipPath><polygon
       style="fill:#282a74"
       id="polygon30824"
       points="98.12,309.52 98.12,298.31 92.73,298.31 92.73,296.783 105.317,296.783 105.317,298.31 99.963,298.31 99.963,309.52 "
       clip-path="url(#SVGID_2094_)" /></g><g
     id="g30838"
     transform="matrix(3.2453729,0,0,3.2453729,-8.1101899,-4.5078234)"><defs
       id="defs30831"><rect
         height="330"
         width="241.92999"
         y="-9.3850002"
         x="-8.658"
         id="SVGID_2095_" /></defs><clipPath
       id="SVGID_2096_"><use
         height="100%"
         width="100%"
         y="0"
         x="0"
         style="overflow:visible"
         id="use30833"
         overflow="visible"
         xlink:href="#SVGID_2095_" /></clipPath><path
       style="fill:#282a74"
       inkscape:connector-curvature="0"
       id="path30836"
       d="m 111.575,296.783 h -2.133 l -6.51,12.736 h 2.022 l 1.625,-3.31 h 7.776 l 1.625,3.31 h 2.103 z m -4.271,7.972 3.222,-6.445 3.107,6.445 z"
       clip-path="url(#SVGID_2096_)" /></g><g
     id="g30848"
     transform="matrix(3.2453729,0,0,3.2453729,-8.1101899,-4.5078234)"><defs
       id="defs30841"><rect
         height="330"
         width="241.92999"
         y="-9.3850002"
         x="-8.658"
         id="SVGID_2097_" /></defs><clipPath
       id="SVGID_2098_"><use
         height="100%"
         width="100%"
         y="0"
         x="0"
         style="overflow:visible"
         id="use30843"
         overflow="visible"
         xlink:href="#SVGID_2097_" /></clipPath><rect
       style="fill:#282a74"
       id="rect30846"
       height="12.735"
       width="1.8430001"
       clip-path="url(#SVGID_2098_)"
       y="296.78299"
       x="119.42" /></g><g
     id="g30858"
     transform="matrix(3.2453729,0,0,3.2453729,-8.1101899,-4.5078234)"><defs
       id="defs30851"><rect
         height="330"
         width="241.92999"
         y="-9.3850002"
         x="-8.658"
         id="SVGID_2099_" /></defs><clipPath
       id="SVGID_2100_"><use
         height="100%"
         width="100%"
         y="0"
         x="0"
         style="overflow:visible"
         id="use30853"
         overflow="visible"
         xlink:href="#SVGID_2099_" /></clipPath><polygon
       style="fill:#282a74"
       id="polygon30856"
       points="133.561,309.52 125.822,298.638 125.787,298.638 125.787,309.52 123.944,309.52 123.944,296.783 126.435,296.783 134.209,307.625 134.249,307.625 134.249,296.783 136.052,296.783 136.052,309.52 "
       clip-path="url(#SVGID_2100_)" /></g><g
     id="g30868"
     transform="matrix(3.2453729,0,0,3.2453729,-8.1101899,-4.5078234)"><defs
       id="defs30861"><rect
         height="330"
         width="241.92999"
         y="-9.3850002"
         x="-8.658"
         id="SVGID_2101_" /></defs><clipPath
       id="SVGID_2102_"><use
         height="100%"
         width="100%"
         y="0"
         x="0"
         style="overflow:visible"
         id="use30863"
         overflow="visible"
         xlink:href="#SVGID_2101_" /></clipPath><polygon
       style="fill:#282a74"
       id="polygon30866"
       points="140.65,298.057 140.614,298.057 140.614,309.52 138.809,309.52 138.809,296.783 141.698,296.783 147.266,307.958 152.873,296.783 155.768,296.783 155.768,309.52 153.957,309.52 153.957,298.057 153.924,298.057 148.246,309.52 146.329,309.52 "
       clip-path="url(#SVGID_2102_)" /></g><g
     id="g30878"
     transform="matrix(3.2453729,0,0,3.2453729,-8.1101899,-4.5078234)"><defs
       id="defs30871"><rect
         height="330"
         width="241.92999"
         y="-9.3850002"
         x="-8.658"
         id="SVGID_2103_" /></defs><clipPath
       id="SVGID_2104_"><use
         height="100%"
         width="100%"
         y="0"
         x="0"
         style="overflow:visible"
         id="use30873"
         overflow="visible"
         xlink:href="#SVGID_2103_" /></clipPath><polygon
       style="fill:#282a74"
       id="polygon30876"
       points="160.322,298.199 160.322,302.24 167.488,302.24 167.488,303.695 160.322,303.695 160.322,308.064 168.172,308.064 168.172,309.52 158.479,309.52 158.479,296.783 167.99,296.783 167.99,298.199 "
       clip-path="url(#SVGID_2104_)" /></g><g
     id="g30888"
     transform="matrix(3.2453729,0,0,3.2453729,-8.1101899,-4.5078234)"><defs
       id="defs30881"><rect
         height="330"
         width="241.92999"
         y="-9.3850002"
         x="-8.658"
         id="SVGID_2105_" /></defs><clipPath
       id="SVGID_2106_"><use
         height="100%"
         width="100%"
         y="0"
         x="0"
         style="overflow:visible"
         id="use30883"
         overflow="visible"
         xlink:href="#SVGID_2105_" /></clipPath><polygon
       style="fill:#282a74"
       id="polygon30886"
       points="172.443,298.638 172.443,309.52 170.592,309.52 170.592,296.783 173.096,296.783 180.829,307.625 180.869,307.625 180.869,296.783 182.712,296.783 182.712,309.52 180.217,309.52 "
       clip-path="url(#SVGID_2106_)" /></g><g
     id="g30898"
     transform="matrix(3.2453729,0,0,3.2453729,-8.1101899,-4.5078234)"><defs
       id="defs30891"><rect
         height="330"
         width="241.92999"
         y="-9.3850002"
         x="-8.658"
         id="SVGID_2107_" /></defs><clipPath
       id="SVGID_2108_"><use
         height="100%"
         width="100%"
         y="0"
         x="0"
         style="overflow:visible"
         id="use30893"
         overflow="visible"
         xlink:href="#SVGID_2107_" /></clipPath><polygon
       style="fill:#282a74"
       id="polygon30896"
       points="189.654,309.52 189.654,298.31 184.263,298.31 184.263,296.783 196.852,296.783 196.852,298.31 191.459,298.31 191.459,309.52 "
       clip-path="url(#SVGID_2108_)" /></g><g
     id="g30908"
     transform="matrix(3.2453729,0,0,3.2453729,-8.1101899,-4.5078234)"><defs
       id="defs30901"><rect
         height="330"
         width="241.92999"
         y="-9.3850002"
         x="-8.658"
         id="SVGID_2109_" /></defs><clipPath
       id="SVGID_2110_"><use
         height="100%"
         width="100%"
         y="0"
         x="0"
         style="overflow:visible"
         id="use30903"
         overflow="visible"
         xlink:href="#SVGID_2109_" /></clipPath><polygon
       style="fill:#282a74"
       id="polygon30906"
       points="38.627,292.741 37.761,292.778 36.532,292.702 35.408,292.559 34.325,292.304 33.348,291.939 32.444,291.5 31.648,290.955 30.924,290.374 30.274,289.72 29.694,288.992 29.188,288.226 28.755,287.353 28.429,286.478 28.176,285.568 27.996,284.623 27.85,283.679 27.85,282.693 27.85,281.819 27.96,280.945 28.14,280.073 28.393,279.198 28.719,278.365 29.117,277.486 29.623,276.723 30.202,275.92 30.853,275.232 31.648,274.611 32.515,274.031 33.492,273.556 34.578,273.156 35.808,272.868 37.108,272.686 38.52,272.61 39.388,272.646 40.184,272.717 40.942,272.868 41.666,273.01 42.39,273.263 43.04,273.521 43.655,273.813 44.234,274.177 44.74,274.576 45.21,274.979 45.608,275.449 45.969,275.92 46.258,276.435 46.477,277.016 46.656,277.562 46.729,278.182 43.655,278.182 43.547,277.707 43.402,277.304 43.221,276.904 43.004,276.576 42.751,276.284 42.462,276.031 42.136,275.739 41.811,275.525 41.413,275.343 41.052,275.192 40.654,275.086 40.184,274.979 39.75,274.904 39.315,274.868 38.81,274.798 38.337,274.798 37.543,274.829 36.746,274.904 35.987,275.051 35.301,275.268 34.649,275.525 33.998,275.889 33.419,276.284 32.913,276.723 32.407,277.233 32.009,277.85 31.648,278.471 31.321,279.198 31.068,279.961 30.888,280.8 30.78,281.709 30.744,282.693 30.78,283.679 30.888,284.588 31.068,285.426 31.321,286.185 31.648,286.912 32.009,287.535 32.407,288.154 32.913,288.661 33.419,289.101 33.998,289.498 34.649,289.864 35.301,290.121 35.987,290.337 36.746,290.484 37.543,290.556 38.337,290.591 38.81,290.556 39.315,290.556 39.786,290.448 40.254,290.374 40.689,290.266 41.124,290.084 41.522,289.902 41.918,289.681 42.316,289.464 42.643,289.207 42.967,288.919 43.221,288.555 43.474,288.226 43.655,287.826 43.836,287.387 43.943,286.952 46.982,286.952 46.837,287.717 46.62,288.407 46.295,289.025 45.969,289.609 45.499,290.156 45.029,290.63 44.487,291.065 43.908,291.43 43.257,291.758 42.569,292.014 41.847,292.267 41.087,292.449 40.292,292.592 39.494,292.702 "
       clip-path="url(#SVGID_2110_)" /></g><g
     id="g30918"
     transform="matrix(3.2453729,0,0,3.2453729,-8.1101899,-4.5078234)"><defs
       id="defs30911"><rect
         height="330"
         width="241.92999"
         y="-9.3850002"
         x="-8.658"
         id="SVGID_2111_" /></defs><clipPath
       id="SVGID_2112_"><use
         height="100%"
         width="100%"
         y="0"
         x="0"
         style="overflow:visible"
         id="use30913"
         overflow="visible"
         xlink:href="#SVGID_2111_" /></clipPath><polygon
       style="fill:#282a74"
       id="polygon30916"
       points="76.314,275.086 76.242,275.086 76.242,292.267 73.49,292.267 73.49,273.121 77.866,273.121 86.255,289.938 94.609,273.121 98.987,273.121 98.987,292.267 96.277,292.267 96.277,275.086 96.205,275.086 87.701,292.267 84.811,292.267 "
       clip-path="url(#SVGID_2112_)" /></g><g
     id="g30928"
     transform="matrix(3.2453729,0,0,3.2453729,-8.1101899,-4.5078234)"><defs
       id="defs30921"><rect
         height="330"
         width="241.92999"
         y="-9.3850002"
         x="-8.658"
         id="SVGID_2113_" /></defs><clipPath
       id="SVGID_2114_"><use
         height="100%"
         width="100%"
         y="0"
         x="0"
         style="overflow:visible"
         id="use30923"
         overflow="visible"
         xlink:href="#SVGID_2113_" /></clipPath><polygon
       style="fill:#282a74"
       id="polygon30926"
       points="133.925,292.449 133.054,292.592 132.117,292.702 131.177,292.741 130.238,292.702 129.329,292.592 128.424,292.449 127.629,292.228 126.834,291.939 126.111,291.576 125.423,291.137 124.845,290.666 124.268,290.156 123.802,289.538 123.33,288.844 122.999,288.115 122.709,287.315 122.493,286.442 122.386,285.497 122.346,284.513 122.346,273.081 125.066,273.081 125.066,284.658 125.098,285.315 125.173,285.969 125.319,286.549 125.462,287.134 125.716,287.645 125.969,288.115 126.293,288.589 126.656,288.992 127.087,289.356 127.518,289.681 128.025,289.938 128.57,290.156 129.147,290.337 129.796,290.448 130.492,290.556 131.177,290.556 131.899,290.556 132.588,290.448 133.201,290.337 133.778,290.156 134.355,289.938 134.825,289.681 135.296,289.356 135.696,288.992 136.092,288.589 136.38,288.115 136.668,287.645 136.891,287.134 137.072,286.549 137.183,285.969 137.254,285.315 137.289,284.658 137.289,273.081 140.037,273.081 140.037,284.513 139.962,285.497 139.891,286.442 139.674,287.315 139.385,288.115 139.025,288.844 138.591,289.538 138.123,290.156 137.542,290.666 136.93,291.137 136.233,291.576 135.514,291.939 134.755,292.228 "
       clip-path="url(#SVGID_2114_)" /></g><g
     id="g30938"
     transform="matrix(3.2453729,0,0,3.2453729,-8.1101899,-4.5078234)"><defs
       id="defs30931"><rect
         height="330"
         width="241.92999"
         y="-9.3850002"
         x="-8.658"
         id="SVGID_2115_" /></defs><clipPath
       id="SVGID_2116_"><use
         height="100%"
         width="100%"
         y="0"
         x="0"
         style="overflow:visible"
         id="use30933"
         overflow="visible"
         xlink:href="#SVGID_2115_" /></clipPath><polygon
       style="fill:#282a74"
       id="polygon30936"
       points="149.867,292.267 149.867,275.449 141.805,275.449 141.805,273.121 160.687,273.121 160.687,275.449 152.62,275.449 152.62,292.267 "
       clip-path="url(#SVGID_2116_)" /></g><g
     id="g30948"
     transform="matrix(3.2453729,0,0,3.2453729,-8.1101899,-4.5078234)"><defs
       id="defs30941"><rect
         height="330"
         width="241.92999"
         y="-9.3850002"
         x="-8.658"
         id="SVGID_2117_" /></defs><clipPath
       id="SVGID_2118_"><use
         height="100%"
         width="100%"
         y="0"
         x="0"
         style="overflow:visible"
         id="use30943"
         overflow="visible"
         xlink:href="#SVGID_2117_" /></clipPath><polygon
       style="fill:#282a74"
       id="polygon30946"
       points="165.211,275.304 165.211,281.345 175.945,281.345 175.945,283.527 165.211,283.527 165.211,290.084 176.994,290.084 176.994,292.267 162.458,292.267 162.458,273.121 176.706,273.121 176.706,275.304 "
       clip-path="url(#SVGID_2118_)" /></g><g
     id="g30960"
     transform="matrix(3.2453729,0,0,3.2453729,-8.1101899,-4.5078234)"><defs
       id="defs30953"><rect
         height="330"
         width="241.92999"
         y="-9.3850002"
         x="-8.658"
         id="SVGID_2119_" /></defs><clipPath
       id="SVGID_2120_"><use
         height="100%"
         width="100%"
         y="0"
         x="0"
         style="overflow:visible"
         id="use30955"
         overflow="visible"
         xlink:href="#SVGID_2119_" /></clipPath><path
       style="fill:#282a74"
       inkscape:connector-curvature="0"
       id="path30958"
       d="m 196.632,291.793 -0.18,-0.545 -0.146,-0.582 -0.107,-0.582 -0.106,-0.656 -0.111,-0.692 -0.142,-0.728 -0.111,-0.728 -0.213,-1.096 -0.221,-0.94 -0.286,-0.731 -0.4,-0.621 -0.434,-0.471 -0.612,-0.328 -0.688,-0.253 -0.874,-0.147 v -0.034 l 0.478,-0.111 0.466,-0.11 0.437,-0.143 0.397,-0.183 0.396,-0.181 0.36,-0.257 0.328,-0.254 0.288,-0.257 0.288,-0.324 0.219,-0.332 0.213,-0.324 0.146,-0.364 0.146,-0.363 0.106,-0.403 0.036,-0.435 0.039,-0.436 -0.039,-0.545 -0.036,-0.55 -0.106,-0.511 -0.111,-0.475 -0.182,-0.47 -0.284,-0.4 -0.292,-0.363 -0.36,-0.363 -0.399,-0.328 -0.538,-0.258 -0.577,-0.217 -0.652,-0.219 -0.767,-0.146 -0.867,-0.147 -0.941,-0.034 -1.045,-0.035 h -9.362 v 19.146 h 2.744 v -8.518 h 5.315 0.616 l 0.577,0.036 0.543,0.034 0.47,0.112 0.395,0.07 0.4,0.111 0.324,0.11 0.289,0.183 0.253,0.142 0.183,0.181 0.212,0.184 0.154,0.221 0.108,0.218 0.109,0.217 0.072,0.254 0.071,0.257 0.182,0.834 0.181,0.839 0.144,0.878 0.145,0.869 0.147,0.768 0.143,0.765 0.182,0.69 0.182,0.546 h 2.887 z m -5.102,-10.59 -0.396,0.106 -0.396,0.075 -0.474,0.106 -0.467,0.035 -0.507,0.039 h -0.506 -6.256 v -6.262 h 6.29 0.615 l 0.545,0.039 0.506,0.031 0.467,0.075 0.435,0.107 0.364,0.11 0.355,0.182 0.301,0.146 0.254,0.182 0.214,0.258 0.182,0.253 0.142,0.252 0.111,0.329 0.071,0.368 0.04,0.366 0.031,0.436 -0.031,0.435 -0.039,0.362 -0.108,0.404 -0.145,0.289 -0.184,0.293 -0.213,0.288 -0.253,0.181 -0.29,0.223 -0.294,0.182 z"
       clip-path="url(#SVGID_2120_)" /></g><g
     id="g30972"
     transform="matrix(3.2453729,0,0,3.2453729,-8.1101899,-4.5078234)"><defs
       id="defs30965"><rect
         height="330"
         width="241.92999"
         y="-9.3850002"
         x="-8.658"
         id="SVGID_2121_" /></defs><clipPath
       id="SVGID_2122_"><use
         height="100%"
         width="100%"
         y="0"
         x="0"
         style="overflow:visible"
         id="use30967"
         overflow="visible"
         xlink:href="#SVGID_2121_" /></clipPath><path
       style="fill:#282a74"
       inkscape:connector-curvature="0"
       id="path30970"
       d="m 70.598,281.819 -0.107,-0.874 -0.181,-0.872 -0.218,-0.874 -0.325,-0.834 -0.434,-0.879 -0.468,-0.763 -0.58,-0.803 -0.693,-0.688 -0.758,-0.621 -0.903,-0.58 -0.939,-0.475 -1.082,-0.399 -1.231,-0.288 -1.303,-0.183 -1.446,-0.076 -1.41,0.076 -1.302,0.183 -1.229,0.288 -1.085,0.399 -0.978,0.475 -0.866,0.58 -0.761,0.621 -0.688,0.688 -0.575,0.803 -0.51,0.763 -0.396,0.879 -0.325,0.834 -0.218,0.874 -0.217,0.872 -0.108,0.874 v 0.874 0.874 l 0.108,0.874 0.217,0.874 0.218,0.87 0.325,0.878 0.396,0.835 0.51,0.803 0.575,0.728 0.688,0.728 0.761,0.617 0.866,0.584 0.978,0.476 1.085,0.396 1.229,0.293 1.302,0.182 1.41,0.075 1.446,-0.075 1.303,-0.182 1.231,-0.293 1.082,-0.396 0.939,-0.476 0.903,-0.584 0.758,-0.617 0.693,-0.728 0.58,-0.728 0.468,-0.803 0.434,-0.835 0.325,-0.878 0.218,-0.87 0.181,-0.874 0.107,-0.874 0.037,-0.874 z m -2.89,1.748 -0.116,0.84 -0.179,0.798 -0.255,0.728 -0.288,0.692 -0.397,0.656 -0.433,0.58 -0.471,0.547 -0.543,0.512 -0.576,0.437 -0.651,0.364 -0.688,0.29 -0.758,0.256 -0.761,0.182 -0.795,0.108 -0.868,0.035 -0.832,-0.035 -0.795,-0.108 -0.796,-0.182 -0.723,-0.256 -0.688,-0.29 -0.651,-0.364 -0.58,-0.437 -0.54,-0.512 -0.507,-0.547 -0.397,-0.58 -0.396,-0.656 -0.292,-0.692 -0.252,-0.728 -0.181,-0.798 -0.108,-0.84 -0.035,-0.874 0.035,-0.874 0.108,-0.798 0.181,-0.802 0.252,-0.764 0.292,-0.696 0.396,-0.653 0.397,-0.581 0.507,-0.545 0.54,-0.474 0.58,-0.475 0.651,-0.364 0.688,-0.293 0.723,-0.253 0.796,-0.183 0.795,-0.109 0.832,-0.031 0.868,0.031 0.795,0.109 0.761,0.183 0.758,0.253 0.688,0.293 0.651,0.364 0.576,0.475 0.543,0.474 0.471,0.545 0.433,0.581 0.397,0.653 0.288,0.696 0.255,0.764 0.179,0.802 0.116,0.798 0.036,0.874 z"
       clip-path="url(#SVGID_2122_)" /></g><g
     id="g30984"
     transform="matrix(3.2453729,0,0,3.2453729,-8.1101899,-4.5078234)"><defs
       id="defs30977"><rect
         height="330"
         width="241.92999"
         y="-9.3850002"
         x="-8.658"
         id="SVGID_2123_" /></defs><clipPath
       id="SVGID_2124_"><use
         height="100%"
         width="100%"
         y="0"
         x="0"
         style="overflow:visible"
         id="use30979"
         overflow="visible"
         xlink:href="#SVGID_2123_" /></clipPath><path
       style="fill:#282a74"
       inkscape:connector-curvature="0"
       id="path30982"
       d="m 119.783,277.668 -0.07,-0.581 -0.111,-0.546 -0.182,-0.51 -0.253,-0.475 -0.288,-0.396 -0.324,-0.403 -0.432,-0.328 -0.476,-0.328 -0.537,-0.253 -0.651,-0.222 -0.695,-0.184 -0.794,-0.141 -0.83,-0.112 -0.939,-0.034 -1.05,-0.035 h -8.713 v 19.146 h 2.746 v -8.407 h 6.836 l 0.832,-0.04 0.758,-0.07 0.758,-0.11 0.649,-0.182 0.624,-0.218 0.577,-0.258 0.47,-0.323 0.467,-0.328 0.4,-0.364 0.324,-0.439 0.253,-0.435 0.253,-0.51 0.181,-0.546 0.147,-0.545 0.07,-0.581 0.035,-0.621 z m -2.894,1.06 -0.07,0.364 -0.071,0.363 -0.106,0.323 -0.146,0.328 -0.182,0.258 -0.258,0.253 -0.253,0.222 -0.291,0.214 -0.36,0.15 -0.361,0.182 -0.396,0.106 -0.471,0.111 -0.504,0.035 -0.506,0.036 h -0.58 -6.148 v -6.37 h 5.933 0.651 l 0.576,0.039 0.578,0.071 0.471,0.07 0.434,0.072 0.396,0.15 0.326,0.142 0.289,0.183 0.297,0.182 0.215,0.222 0.181,0.253 0.146,0.252 0.108,0.329 0.07,0.328 0.034,0.328 0.04,0.364 z"
       clip-path="url(#SVGID_2124_)" /></g><g
     transform="matrix(17.854744,0,0,17.854744,0,130.59379)"
     id="XMLID_2700_"><g
       id="XMLID_2701_"><g
         id="XMLID_2702_"><g
           id="XMLID_2703_"><g
             id="XMLID_2704_"><g
               id="XMLID_2705_"><linearGradient
                 gradientTransform="translate(-1140.1382,16.7252)"
                 y2="3.2748001"
                 x2="1180.1378"
                 y1="3.2748001"
                 x1="1140.1382"
                 gradientUnits="userSpaceOnUse"
                 id="XMLID_2_"><stop
                   id="stop40248"
                   style="stop-color:#E7380D"
                   offset="0" /><stop
                   id="stop40250"
                   style="stop-color:#E7380D"
                   offset="2.000000e-02" /><stop
                   id="stop40252"
                   style="stop-color:#E8410C"
                   offset="7.511782e-02" /><stop
                   id="stop40254"
                   style="stop-color:#EC590A"
                   offset="0.1651" /><stop
                   id="stop40256"
                   style="stop-color:#F18107"
                   offset="0.2786" /><stop
                   id="stop40258"
                   style="stop-color:#F9B703"
                   offset="0.41" /><stop
                   id="stop40260"
                   style="stop-color:#FFE100"
                   offset="0.5" /><stop
                   id="stop40262"
                   style="stop-color:#F9B703"
                   offset="0.59" /><stop
                   id="stop40264"
                   style="stop-color:#F18107"
                   offset="0.7214" /><stop
                   id="stop40266"
                   style="stop-color:#EC590A"
                   offset="0.8349" /><stop
                   id="stop40268"
                   style="stop-color:#E8410C"
                   offset="0.9249" /><stop
                   id="stop40270"
                   style="stop-color:#E7380D"
                   offset="0.98" /><stop
                   id="stop40272"
                   style="stop-color:#E7380D"
                   offset="1" /></linearGradient><polygon
                 points="40,20 20,0 0,20 20,40 "
                 style="fill:url(#XMLID_2_)"
                 id="XMLID_2708_" /><linearGradient
                 gradientTransform="translate(-1140.1382,16.5269)"
                 y2="-3.5228"
                 x2="1153.3107"
                 y1="-3.5228"
                 x1="1163.9911"
                 gradientUnits="userSpaceOnUse"
                 id="XMLID_3_"><stop
                   id="stop40276"
                   style="stop-color:#FFDD00"
                   offset="0.2" /><stop
                   id="stop40278"
                   style="stop-color:#FDCA02"
                   offset="0.2824" /><stop
                   id="stop40280"
                   style="stop-color:#F79A05"
                   offset="0.4488" /><stop
                   id="stop40282"
                   style="stop-color:#EE4E0C"
                   offset="0.6813" /><stop
                   id="stop40284"
                   style="stop-color:#E50012"
                   offset="0.9" /></linearGradient><polygon
                 points="13,13 21.1,21.1 21.1,4.9 "
                 style="fill:url(#XMLID_3_)"
                 id="XMLID_2707_" /><linearGradient
                 gradientTransform="rotate(180,-2589.9031,-3477.8369)"
                 y2="-6982.6733"
                 x2="-5206.6196"
                 y1="-6982.6733"
                 x1="-5195.939"
                 gradientUnits="userSpaceOnUse"
                 id="XMLID_4_"><stop
                   id="stop40288"
                   style="stop-color:#FFDD00"
                   offset="0.2" /><stop
                   id="stop40290"
                   style="stop-color:#FDCA02"
                   offset="0.2824" /><stop
                   id="stop40292"
                   style="stop-color:#F79A05"
                   offset="0.4488" /><stop
                   id="stop40294"
                   style="stop-color:#EE4E0C"
                   offset="0.6813" /><stop
                   id="stop40296"
                   style="stop-color:#E50012"
                   offset="0.9" /></linearGradient><polygon
                 points="27,27 18.9,18.9 18.9,35.1 "
                 style="fill:url(#XMLID_4_)"
                 id="XMLID_2706_" /></g></g></g></g></g></g></svg>